<?xml version="1.0" encoding="utf-8"?>
<!-- Generator: Adobe Illustrator 16.0.0, SVG Export Plug-In . SVG Version: 6.00 Build 0)  -->
<!DOCTYPE svg PUBLIC "-//W3C//DTD SVG 1.1//EN" "http://www.w3.org/Graphics/SVG/1.1/DTD/svg11.dtd">
<svg version="1.1" id="Layer_1" xmlns="http://www.w3.org/2000/svg" xmlns:xlink="http://www.w3.org/1999/xlink" x="0px" y="0px"
	 width="129.025px" height="126px" viewBox="0 0 129.025 126" style="enable-background:new 0 0 129.025 126;" xml:space="preserve"
	>
<path style="fill-rule:evenodd;clip-rule:evenodd;fill:#FFFFFF;" d="M64.543,3.598c-32.447,0-58.75,26.303-58.75,58.75
	c0,32.447,26.303,58.75,58.75,58.75s58.75-26.303,58.75-58.75C123.293,29.901,96.99,3.598,64.543,3.598z M103.241,84.479
	c-3.127,4.285-7.107,7.904-11.997,10.728c-2.942,1.698-6.06,2.999-9.14,3.84c-0.381,0.107-0.768,0.209-1.152,0.304l-5.384-15.994
	c4.294-2.629,7.593-5.584,10.294-9.676c0.292-0.443,0.579-0.9,0.858-1.372l0.103-0.164c0.305-0.491,0.599-0.986,0.882-1.484
	c6.185-10.857,7.097-23.286,1.283-33.356C83.78,28.282,74.266,22.983,63.365,21.92l4.629,38.753L55.308,21.896l-1.766-5.38
	c19.776-4.756,41.125,3.76,51.812,22.271c1.099,1.902,2.248,4.408,2.248,4.408c0.084,0.192,0.172,0.432,0.262,0.715
	c0.092,0.132,0.181,0.295,0.268,0.491c2.319,5.247,2.719,12.155,2.791,14.124c0.094,7.602-1.635,14.531-3.449,18.89
	C106.384,79.927,104.965,82.305,103.241,84.479z"/>
</svg>
