<?xml version="1.0" encoding="utf-8"?>
<!-- Generator: Adobe Illustrator 16.0.0, SVG Export Plug-In . SVG Version: 6.00 Build 0)  -->
<!DOCTYPE svg PUBLIC "-//W3C//DTD SVG 1.1//EN" "http://www.w3.org/Graphics/SVG/1.1/DTD/svg11.dtd">
<svg version="1.1" id="Layer_1" xmlns="http://www.w3.org/2000/svg" xmlns:xlink="http://www.w3.org/1999/xlink" x="0px" y="0px"
	 width="129.025px" height="126px" viewBox="0 0 129.025 126" enable-background="new 0 0 129.025 126" xml:space="preserve">
<path fill="#FFFFFF" d="M64.543,3.598c-32.446,0-58.75,26.303-58.75,58.8c0,32.4,26.3,58.8,58.8,58.75
	c32.5-0.051,58.75-26.304,58.75-58.75C123.293,29.9,97,3.6,64.5,3.598H64.543z M103.241,84.5
	c-3.127,4.285-7.107,7.904-11.997,10.729c-2.942,1.697-6.06,2.998-9.14,3.84c-0.381,0.106-0.769,0.209-1.152,0.304l-5.384-15.994
	c4.294-2.629,7.593-5.584,10.294-9.676c0.292-0.443,0.579-0.9,0.858-1.372l0.103-0.164c0.305-0.491,0.599-0.986,0.882-1.484
	c6.186-10.856,7.097-23.286,1.283-33.355C83.78,28.3,74.3,23,63.4,21.92l4.629,38.753L55.308,21.896l-1.767-5.38
	c19.776-4.756,41.101,3.8,51.8,22.271c1.1,1.9,2.2,4.4,2.2,4.408c0.084,0.2,0.2,0.4,0.3,0.7c0.093,0.1,0.2,0.3,0.301,0.491
	c2.318,5.2,2.699,12.2,2.8,14.124c0.094,7.602-1.635,14.531-3.449,18.9c-1.109,2.49-2.493,4.89-4.293,7.068L103.241,84.5z"/>
</svg>
